<mxfile host="app.diagrams.net" modified="2022-05-09T13:07:04.183Z" agent="5.0 (Windows NT 10.0; Win64; x64) AppleWebKit/537.36 (KHTML, like Gecko) Chrome/100.0.4896.127 Safari/537.36" etag="ETY9rlH5pE0Kon9TalgT" version="18.0.2" type="github">
  <diagram id="imBTQEfnZWAQ0RPy_etN" name="Page-1">
    <mxGraphModel dx="1422" dy="762" grid="1" gridSize="10" guides="1" tooltips="1" connect="1" arrows="1" fold="1" page="1" pageScale="1" pageWidth="850" pageHeight="1100" math="0" shadow="0">
      <root>
        <mxCell id="0" />
        <mxCell id="1" parent="0" />
        <mxCell id="aEruKK_GHSnT-Z7Qu4hB-3" value="" style="shape=image;html=1;verticalAlign=top;verticalLabelPosition=bottom;labelBackgroundColor=#ffffff;imageAspect=0;aspect=fixed;image=https://cdn1.iconfinder.com/data/icons/dompicon-glyph-fitness-diet/256/fitband-sport-watch-fitness-diet-128.png" vertex="1" parent="1">
          <mxGeometry x="320" y="348.5" width="151.5" height="151.5" as="geometry" />
        </mxCell>
        <mxCell id="aEruKK_GHSnT-Z7Qu4hB-10" value="" style="strokeWidth=1;shadow=0;dashed=0;align=center;html=1;shape=mxgraph.mockup.containers.browserWindow;rSize=0;strokeColor=none;strokeColor2=#008cff;strokeColor3=#c4c4c4;mainText=,;recursiveResize=0;fillColor=none;" vertex="1" parent="1">
          <mxGeometry x="10" y="20" width="260" height="210" as="geometry" />
        </mxCell>
        <mxCell id="aEruKK_GHSnT-Z7Qu4hB-14" value="" style="shape=image;html=1;verticalAlign=top;verticalLabelPosition=bottom;labelBackgroundColor=#ffffff;imageAspect=0;aspect=fixed;image=https://cdn2.iconfinder.com/data/icons/user-interface-169/32/menu-128.png" vertex="1" parent="aEruKK_GHSnT-Z7Qu4hB-10">
          <mxGeometry x="40" y="120" width="80" height="80" as="geometry" />
        </mxCell>
        <mxCell id="aEruKK_GHSnT-Z7Qu4hB-15" value="" style="sketch=0;outlineConnect=0;fontColor=#232F3E;gradientColor=none;fillColor=#D45B07;strokeColor=none;dashed=0;verticalLabelPosition=bottom;verticalAlign=top;align=center;html=1;fontSize=12;fontStyle=0;aspect=fixed;pointerEvents=1;shape=mxgraph.aws4.container_registry_image;" vertex="1" parent="aEruKK_GHSnT-Z7Qu4hB-10">
          <mxGeometry x="140" y="120" width="80" height="80" as="geometry" />
        </mxCell>
        <mxCell id="aEruKK_GHSnT-Z7Qu4hB-17" value="" style="html=1;verticalLabelPosition=bottom;labelBackgroundColor=#ffffff;verticalAlign=top;shadow=0;dashed=0;strokeWidth=1;shape=mxgraph.ios7.misc.iphone;strokeColor=#000000;" vertex="1" parent="1">
          <mxGeometry x="311" y="10" width="169" height="310" as="geometry" />
        </mxCell>
        <mxCell id="aEruKK_GHSnT-Z7Qu4hB-18" value="" style="whiteSpace=wrap;html=1;shape=mxgraph.basic.document;shadow=0;strokeColor=#000000;fillColor=none;" vertex="1" parent="1">
          <mxGeometry x="10" y="260" width="260" height="240" as="geometry" />
        </mxCell>
        <mxCell id="aEruKK_GHSnT-Z7Qu4hB-19" value="" style="shape=image;html=1;verticalAlign=top;verticalLabelPosition=bottom;labelBackgroundColor=#ffffff;imageAspect=0;aspect=fixed;image=https://cdn2.iconfinder.com/data/icons/user-interface-169/32/menu-128.png" vertex="1" parent="1">
          <mxGeometry x="150" y="320" width="80" height="80" as="geometry" />
        </mxCell>
        <mxCell id="aEruKK_GHSnT-Z7Qu4hB-20" value="" style="sketch=0;outlineConnect=0;fontColor=#232F3E;gradientColor=none;fillColor=#D45B07;strokeColor=none;dashed=0;verticalLabelPosition=bottom;verticalAlign=top;align=center;html=1;fontSize=12;fontStyle=0;aspect=fixed;pointerEvents=1;shape=mxgraph.aws4.container_registry_image;" vertex="1" parent="1">
          <mxGeometry x="50" y="320" width="80" height="80" as="geometry" />
        </mxCell>
        <mxCell id="aEruKK_GHSnT-Z7Qu4hB-21" value="" style="shape=image;html=1;verticalAlign=top;verticalLabelPosition=bottom;labelBackgroundColor=#ffffff;imageAspect=0;aspect=fixed;image=https://cdn2.iconfinder.com/data/icons/user-interface-169/32/menu-128.png" vertex="1" parent="1">
          <mxGeometry x="330" y="180" width="80" height="80" as="geometry" />
        </mxCell>
        <mxCell id="aEruKK_GHSnT-Z7Qu4hB-22" value="" style="sketch=0;outlineConnect=0;fontColor=#232F3E;gradientColor=none;fillColor=#D45B07;strokeColor=none;dashed=0;verticalLabelPosition=bottom;verticalAlign=top;align=center;html=1;fontSize=12;fontStyle=0;aspect=fixed;pointerEvents=1;shape=mxgraph.aws4.container_registry_image;" vertex="1" parent="1">
          <mxGeometry x="355.75" y="80" width="80" height="80" as="geometry" />
        </mxCell>
      </root>
    </mxGraphModel>
  </diagram>
</mxfile>
